<svg width="60" height="60" viewBox="0 0 60 60" fill="none" xmlns="http://www.w3.org/2000/svg">
  <rect width="60" height="60" rx="12" fill="#1A1A1A"/>
  <path d="M30 15C21.716 15 15 21.716 15 30C15 38.284 21.716 45 30 45C38.284 45 45 38.284 45 30C45 21.716 38.284 15 30 15ZM30 42C23.373 42 18 36.627 18 30C18 23.373 23.373 18 30 18C36.627 18 42 23.373 42 30C42 36.627 36.627 42 30 42Z" fill="#00D4FF"/>
  <path d="M30 21C25.029 21 21 25.029 21 30C21 34.971 25.029 39 30 39C34.971 39 39 34.971 39 30C39 25.029 34.971 21 30 21ZM30 36C26.686 36 24 33.314 24 30C24 26.686 26.686 24 30 24C33.314 24 36 26.686 36 30C36 33.314 33.314 36 30 36Z" fill="#00D4FF"/>
  <circle cx="30" cy="30" r="3" fill="#00D4FF"/>
</svg> 